<svg width="76" height="42" viewBox="0 0 76 42" fill="none" xmlns="http://www.w3.org/2000/svg">
<path d="M21 41V37.6667C21 33.2464 22.7559 29.0072 25.8816 25.8816C29.0072 22.7559 33.2464 21 37.6667 21M37.6667 21C42.0869 21 46.3262 22.7559 49.4518 25.8816C52.5774 29.0072 54.3333 33.2464 54.3333 37.6667V41M37.6667 21C40.3188 21 42.8624 19.9464 44.7377 18.0711C46.6131 16.1957 47.6667 13.6522 47.6667 11C47.6667 8.34783 46.6131 5.8043 44.7377 3.92893C42.8624 2.05357 40.3188 1 37.6667 1C35.0145 1 32.471 2.05357 30.5956 3.92893C28.7202 5.8043 27.6667 8.34783 27.6667 11C27.6667 13.6522 28.7202 16.1957 30.5956 18.0711C32.471 19.9464 35.0145 21 37.6667 21ZM1 41V37.6667C1 35.0145 2.05357 32.471 3.92893 30.5956C5.8043 28.7202 8.34783 27.6667 11 27.6667M11 27.6667C12.7681 27.6667 14.4638 26.9643 15.714 25.714C16.9643 24.4638 17.6667 22.7681 17.6667 21C17.6667 19.2319 16.9643 17.5362 15.714 16.286C14.4638 15.0357 12.7681 14.3333 11 14.3333C9.23189 14.3333 7.5362 15.0357 6.28595 16.286C5.03571 17.5362 4.33333 19.2319 4.33333 21C4.33333 22.7681 5.03571 24.4638 6.28595 25.714C7.5362 26.9643 9.23189 27.6667 11 27.6667ZM74.3333 41V37.6667C74.3333 35.0145 73.2798 32.471 71.4044 30.5956C69.529 28.7202 66.9855 27.6667 64.3333 27.6667M64.3333 27.6667C66.1014 27.6667 67.7971 26.9643 69.0474 25.714C70.2976 24.4638 71 22.7681 71 21C71 19.2319 70.2976 17.5362 69.0474 16.286C67.7971 15.0357 66.1014 14.3333 64.3333 14.3333C62.5652 14.3333 60.8695 15.0357 59.6193 16.286C58.369 17.5362 57.6667 19.2319 57.6667 21C57.6667 22.7681 58.369 24.4638 59.6193 25.714C60.8695 26.9643 62.5652 27.6667 64.3333 27.6667Z" stroke="#FF9900" stroke-width="2" stroke-linecap="round" stroke-linejoin="round"/>
</svg>
