<svg width="47" height="61" viewBox="0 0 47 61" fill="none" xmlns="http://www.w3.org/2000/svg">
<path d="M25.7938 37.5677H11.8538C10.3729 37.5644 8.90707 37.8649 7.5469 38.4506C6.18672 39.0363 4.96111 39.8947 3.94582 40.9728C2.93053 42.0509 2.14714 43.3258 1.64406 44.7186C1.14098 46.1114 0.9289 47.5927 1.02094 49.0707C1.11297 50.5488 1.50716 51.9922 2.17915 53.3119C2.85113 54.6316 3.78663 55.7994 4.92782 56.7432C6.06901 57.6871 7.39164 58.3868 8.81397 58.7992C10.2363 59.2116 11.7281 59.328 13.1972 59.141L15.0538 58.9077C18.0176 58.5359 20.7439 57.0956 22.7212 54.8568C24.6985 52.618 25.7911 49.7347 25.7938 46.7477V15.5343C25.7938 10.1377 25.7938 7.44101 27.3738 5.57768C28.9538 3.71435 31.6138 3.26768 36.9338 2.37768L44.7938 1.06768C45.2472 0.994346 45.4738 0.954346 45.5938 1.08768C45.7138 1.22101 45.6605 1.44101 45.5505 1.88768L42.5672 13.8243C42.5172 14.0243 42.4905 14.1243 42.4205 14.191C42.3505 14.2577 42.2538 14.2777 42.0505 14.3177L25.7938 17.5677" stroke="#FF9900" stroke-width="2"/>
</svg>
