<svg width="69" height="69" viewBox="0 0 69 69" fill="none" xmlns="http://www.w3.org/2000/svg">
<path d="M13.1891 31.0067L8.2891 42.0333C2.10244 55.9467 -0.987563 62.9033 2.3891 66.28C5.76577 69.6567 12.7158 66.5633 26.6291 60.38L37.6624 55.4733C46.0524 51.7433 50.2491 49.88 50.9158 46.2833C51.5824 42.6867 48.3358 39.44 41.8424 32.95L35.7158 26.82C29.2258 20.3267 25.9791 17.08 22.3824 17.75C18.7858 18.4167 16.9224 22.6133 13.1924 31.0033M15.9958 29.3333L39.3291 52.6667M9.3291 46L22.6624 59.3333M47.6624 21L57.6624 11M41.6524 1C42.9858 3.22333 44.0491 9 37.6624 14.3333M67.6624 27.01C65.4391 25.6767 59.6624 24.6133 54.3291 31M54.3291 1V1.06667M67.6624 14.3333V14.4M64.3291 37.6667V37.7333M30.9958 4.33333V4.4" stroke="#FF9900" stroke-width="2" stroke-linecap="round" stroke-linejoin="round"/>
</svg>
