<svg width="56" height="69" viewBox="0 0 56 69" fill="none" xmlns="http://www.w3.org/2000/svg">
<path d="M1.00024 21C1.00024 11.5733 1.00024 6.85667 3.93024 3.93C6.85691 1 11.5736 1 21.0002 1H34.3336C43.7602 1 48.4769 1 51.4036 3.93C54.3336 6.85667 54.3336 11.5733 54.3336 21V47.6667C54.3336 57.0933 54.3336 61.81 51.4036 64.7367C48.4769 67.6667 43.7602 67.6667 34.3336 67.6667H21.0002C11.5736 67.6667 6.85691 67.6667 3.93024 64.7367C1.00024 61.81 1.00024 57.0933 1.00024 47.6667V21Z" stroke="#FF9900" stroke-width="2" stroke-linecap="round"/>
<path d="M53.9936 47.6665H13.9936C10.8936 47.6665 9.34358 47.6665 8.07024 48.0065C6.37461 48.4612 4.82856 49.3542 3.5875 50.5959C2.34645 51.8375 1.45413 53.384 1.00024 55.0798" stroke="#FF9900" stroke-width="2" stroke-linecap="round"/>
<path d="M14.3336 17.6665H41.0002M14.3336 29.3332H31.0002" stroke="#FF9900" stroke-width="2" stroke-linecap="round"/>
</svg>
