<svg width="52" height="56" viewBox="0 0 52 56" fill="none" xmlns="http://www.w3.org/2000/svg">
<path fill-rule="evenodd" clip-rule="evenodd" d="M51 24.8039C51 11.7552 39.5278 1 26 1C12.4722 1 1 11.7552 1 24.8066C1 38.1086 12.675 47.3038 23.425 53.6854C24.2111 54.1102 25.0979 54.3333 26 54.3333C26.9021 54.3333 27.7889 54.1102 28.575 53.6854C39.3417 47.3624 51 38.0579 51 24.8039ZM34.9822 28.5732C35.4707 27.4407 35.7222 26.227 35.7222 25.0013C35.7222 22.5258 34.6979 20.1517 32.8746 18.4012C31.0514 16.6508 28.5785 15.6674 26 15.6674C23.4215 15.6674 20.9486 16.6508 19.1254 18.4012C17.3021 20.1517 16.2778 22.5258 16.2778 25.0013C16.2778 26.227 16.5292 27.4407 17.0178 28.5732C17.5064 29.7056 18.2226 30.7345 19.1254 31.6013C20.0281 32.468 21.0999 33.1555 22.2795 33.6246C23.459 34.0937 24.7233 34.3351 26 34.3351C27.2767 34.3351 28.541 34.0937 29.7205 33.6246C30.9001 33.1555 31.9719 32.468 32.8746 31.6013C33.7774 30.7345 34.4936 29.7056 34.9822 28.5732Z" stroke="#FF9900" stroke-width="2"/>
</svg>
