<svg width="16" height="16" viewBox="0 0 16 16" fill="none" xmlns="http://www.w3.org/2000/svg">
<path d="M6.59408 13.1774C2.96105 13.1774 0.00537109 10.2217 0.00537109 6.58871C0.00537109 2.95567 2.96105 0 6.59408 0C10.2271 0 13.1828 2.95567 13.1828 6.58871C13.1828 10.2217 10.2271 13.1774 6.59408 13.1774ZM6.59408 1.24904C3.64977 1.24904 1.25441 3.6444 1.25441 6.58871C1.25441 9.53301 3.64977 11.9284 6.59408 11.9284C9.53839 11.9284 11.9337 9.53301 11.9337 6.58871C11.9337 3.6444 9.53839 1.24904 6.59408 1.24904ZM15.8102 15.8171C16.0541 15.5732 16.0541 15.1777 15.8102 14.9338L13.0155 12.1391C12.7716 11.8952 12.3761 11.8952 12.1323 12.1391C11.8884 12.383 11.8884 12.7785 12.1323 13.0223L14.927 15.8171C15.0489 15.939 15.2088 16 15.3686 16C15.5285 16 15.6883 15.939 15.8102 15.8171Z" fill="#3B3E44"/>
</svg>
