<svg width="13" height="17" viewBox="0 0 13 17" fill="none" xmlns="http://www.w3.org/2000/svg">
<path d="M9.29999 3.02732C9.29999 1.52109 7.95684 0.300049 6.29999 0.300049C4.64313 0.300049 3.29999 1.52109 3.29999 3.02732V7.57278C3.29999 9.07901 4.64313 10.3 6.29999 10.3C7.95684 10.3 9.29999 9.07901 9.29999 7.57278V3.02732Z" stroke="white" stroke-width="0.6" stroke-linecap="round" stroke-linejoin="round"/>
<path d="M12.3 7.30005C12.3 8.12738 12.1448 8.9466 11.8433 9.71095C11.5417 10.4753 11.0998 11.1698 10.5426 11.7548C9.98548 12.3398 9.32404 12.8039 8.59609 13.1205C7.86814 13.4371 7.08792 13.6 6.29999 13.6M6.29999 13.6C5.51206 13.6 4.73184 13.4371 4.00389 13.1205C3.27593 12.8039 2.6145 12.3398 2.05735 11.7548C1.5002 11.1698 1.05824 10.4753 0.75671 9.71095C0.455182 8.9466 0.299988 8.12738 0.299988 7.30005M6.29999 13.6V16.3" stroke="white" stroke-width="0.6" stroke-linecap="round" stroke-linejoin="round"/>
</svg>
