<svg width="19" height="17" viewBox="0 0 19 17" fill="none" xmlns="http://www.w3.org/2000/svg">
<path d="M6.29999 3.50005C6.29999 4.82553 5.22547 5.90005 3.89999 5.90005C2.5745 5.90005 1.49999 4.82553 1.49999 3.50005C1.49999 2.17457 2.5745 1.10005 3.89999 1.10005C5.22547 1.10005 6.29999 2.17457 6.29999 3.50005ZM6.29999 3.50005C6.29999 5.26736 7.73268 6.70005 9.49999 6.70005C11.2673 6.70005 12.7 5.26736 12.7 3.50005M6.29999 3.50005C6.29999 1.73274 7.73268 0.300049 9.49999 0.300049C11.2673 0.300049 12.7 1.73274 12.7 3.50005M12.7 3.50005C12.7 4.82553 13.7745 5.90005 15.1 5.90005C16.4255 5.90005 17.5 4.82553 17.5 3.50005C17.5 2.17457 16.4255 1.10005 15.1 1.10005C13.7745 1.10005 12.7 2.17457 12.7 3.50005ZM4.69999 14.3H1.89999H1.09999C0.65816 14.3 0.299988 13.9419 0.299988 13.5V9.10005C0.299988 8.16672 1.01999 6.30005 3.89999 6.30005C4.78819 6.30005 6.33383 6.60685 7.07706 7.67461M4.69999 14.3V10.9C4.69999 9.9921 5.22667 8.39716 7.07706 7.67461M4.69999 14.3V15.5C4.69999 15.9419 5.05816 16.3 5.49999 16.3H9.29999M7.07706 7.67461C7.67224 7.4422 8.40438 7.30005 9.29999 7.30005M13.7 14.3H16.5H17.3C17.7418 14.3 18.1 13.9419 18.1 13.5V9.10005C18.1 8.16672 17.38 6.30005 14.5 6.30005C13.6118 6.30005 12.0661 6.60685 11.3229 7.67461M13.7 14.3V10.9C13.7 9.9921 13.1733 8.39716 11.3229 7.67461M13.7 14.3V15.5C13.7 15.9419 13.3418 16.3 12.9 16.3H9.09999M11.3229 7.67461C10.7277 7.4422 9.9956 7.30005 9.09999 7.30005" stroke="white" stroke-width="0.6" stroke-linecap="round"/>
</svg>
