<svg width="17" height="17" viewBox="0 0 17 17" fill="none" xmlns="http://www.w3.org/2000/svg">
<path d="M0.951236 1.30005L13.9158 14.0909C14.1618 14.3336 14.3 14.6628 14.3 15.006C14.3 15.3492 14.1618 15.6784 13.9158 15.9211C13.6697 16.1638 13.3361 16.3 12.9882 16.3C12.6403 16.3 12.3067 16.1638 12.0606 15.9211L8.89367 12.7428C8.68641 12.5352 8.57015 12.2555 8.56993 11.9641V11.7721C8.56996 11.625 8.54036 11.4793 8.48286 11.3435C8.42535 11.2078 8.34108 11.0846 8.23494 10.9813L7.82604 10.6087C7.68724 10.4824 7.51844 10.3925 7.3352 10.3474C7.15195 10.3022 6.96014 10.3033 6.77742 10.3504C6.48929 10.4246 6.18649 10.4232 5.89909 10.3463C5.61169 10.2694 5.34967 10.1196 5.13904 9.91197L2.13287 6.94574C0.34951 5.18628 -0.306759 2.52938 0.951236 1.30005Z" stroke="white" stroke-width="0.6" stroke-linejoin="round"/>
<path d="M13.4428 0.300049L10.6838 3.05903C10.4715 3.27129 10.3031 3.52329 10.1882 3.80065C10.0733 4.078 10.0142 4.37528 10.0142 4.67549V5.20621C10.0142 5.2813 9.99938 5.35566 9.97064 5.42503C9.9419 5.4944 9.89976 5.55743 9.84665 5.61051L9.44271 6.01444M10.5856 7.15732L10.9895 6.75339C11.0426 6.70027 11.1056 6.65814 11.175 6.6294C11.2444 6.60066 11.3187 6.58587 11.3938 6.58588H11.9245C12.2248 6.58588 12.522 6.52675 12.7994 6.41185C13.0767 6.29694 13.3287 6.12853 13.541 5.91623L16.3 3.15725M14.8714 1.72865L12.0142 4.58584M6.2998 12.3003L2.7383 15.8818C2.4704 16.1496 2.10709 16.3 1.72828 16.3C1.34947 16.3 0.986164 16.1496 0.718262 15.8818C0.450441 15.6139 0.299988 15.2506 0.299988 14.8718C0.299988 14.4929 0.450441 14.1296 0.718262 13.8617L3.72832 10.8717" stroke="white" stroke-width="0.6" stroke-linecap="round" stroke-linejoin="round"/>
</svg>
