<svg width="17" height="17" viewBox="0 0 17 17" fill="none" xmlns="http://www.w3.org/2000/svg">
<path d="M8.29999 16.3V13.3M8.29999 16.3C10.3289 16.3 12.1814 16.1112 13.5916 15.8C15.2525 15.4336 16.3 14.8974 16.3 14.3V11.3M8.29999 16.3C6.27109 16.3 4.41861 16.1112 3.00834 15.8C1.3475 15.4336 0.299988 14.8974 0.299988 14.3V11.3M16.3 11.3C16.3 11.8974 15.2525 12.4336 13.5916 12.8C12.1814 13.1112 10.3289 13.3 8.29999 13.3M16.3 11.3C16.3 10.3963 13.902 9.63248 10.6099 9.38468M8.29999 13.3C6.27109 13.3 4.41861 13.1112 3.00834 12.8C1.3475 12.4336 0.299988 11.8974 0.299988 11.3M0.299988 11.3C0.299988 10.3963 2.69797 9.63248 5.99009 9.38468M11.3 11.8C11.3 12.0762 9.95684 12.3 8.29999 12.3C6.64313 12.3 5.29999 12.0762 5.29999 11.8M11.3 11.8C11.3 11.5239 9.95684 11.3 8.29999 11.3C6.64313 11.3 5.29999 11.5239 5.29999 11.8M11.3 11.8L10.6099 9.38468M5.29999 11.8L5.99009 9.38468M5.99009 9.38468L7.33846 2.80005C7.61476 1.83301 8.98522 1.83301 9.26151 2.80005L10.6099 9.38468M11.3 0.300049C11.1333 2.30005 12.7 6.30005 16.3 6.30005C16.0184 6.30005 14.7853 6.72824 14.4092 8.3081C14.2814 8.84538 14.7477 9.30005 15.3 9.30005H16.3V3.30005C16.3 1.64319 14.9568 0.300049 13.3 0.300049H11.3ZM5.27441 0.300049C5.44023 2.30005 3.88157 6.30005 0.299988 6.30005C0.580137 6.30005 1.80693 6.72823 2.18106 8.30802C2.30833 8.84544 1.84204 9.30005 1.28976 9.30005H0.299988V3.30005C0.299988 1.64319 1.64313 0.300049 3.29999 0.300049H5.27441Z" stroke="white" stroke-width="0.6"/>
</svg>
