<?xml version="1.0" encoding="utf-8"?><svg viewBox="0 0 146 24" xmlns="http://www.w3.org/2000/svg" xmlns:xlink="http://www.w3.org/1999/xlink"><style>:root>svg{display:none}:root>svg:target{display:block}</style><svg viewBox="0 0 22 22" id="clock" xmlns="http://www.w3.org/2000/svg"><path d="M10.65 4.65v6h6m-6 10c5.523 0 10-4.477 10-10s-4.477-10-10-10-10 4.477-10 10 4.477 10 10 10z"/></svg><svg viewBox="0 0 24 24" id="close" xmlns="http://www.w3.org/2000/svg"><path d="M23.361 21.15l-9.302-9.29 9.303-9.184.317-.317c.317-.422.422-.95.211-1.372-.211-.422-.529-.845-1.057-.95-.529-.106-1.057 0-1.586.528l-9.302 9.29-6.66-6.651L2.643.564C2.22.038 1.69-.068 1.163.038.634.142.21.565 0 1.092v.74c.106.422.423.738.74 1.055l9.09 9.079-9.09 9.078c-.317.317-.634.634-.74 1.056v.633c.211.634.529 1.056 1.163 1.267h.634c.423-.106.74-.422 1.057-.633l9.091-9.079 9.09 9.079c.318.316.53.527.952.633h.635l.21-.106c.53-.21.952-.738.952-1.372.106-.633-.105-.95-.422-1.372z"/></svg><svg viewBox="0 0 146 18" id="decor" xmlns="http://www.w3.org/2000/svg"><path d="M143.74 4.024c-1.808-1.862-4.806-3.101-8.997-3.72-3.279-.483-6.471-.39-9.575.279a51.21 51.21 0 00-9.116 2.88 96.617 96.617 0 00-8.853 4.28 166.863 166.863 0 01-8.788 4.476c-3.529 1.67-7.033 2.953-10.512 3.848-3.478.895-7.04 1.074-10.683.537-.755-.112-1.624-.327-2.605-.644.25-.104.492-.212.727-.324 1.915-.907 3.449-1.885 4.6-2.93 1.15-1.046 1.946-2.086 2.385-3.12.44-1.036.61-1.89.513-2.564-.141-.543-.32-.922-.538-1.141-.218-.219-.691-.274-1.419-.166-.486.071-.834.342-1.045.81a4.671 4.671 0 00-.393 1.466c-.05.508-.075.98-.073 1.419.002.438.007.687.015.749.098.674-.236 1.365-1.002 2.072-.765.707-1.71 1.363-2.831 1.966-.818.44-1.67.834-2.55 1.183a24.269 24.269 0 01-2.552-1.183c-1.121-.603-2.066-1.26-2.831-1.966-.766-.708-1.1-1.399-1.002-2.072.009-.061.014-.311.015-.75a13.95 13.95 0 00-.073-1.418 4.671 4.671 0 00-.392-1.465c-.212-.47-.56-.74-1.046-.811-.729-.108-1.202-.052-1.419.166-.218.218-.397.598-.537 1.141-.098.674.073 1.528.512 2.563.44 1.035 1.235 2.075 2.386 3.12 1.15 1.047 2.684 2.024 4.6 2.931.234.112.477.22.727.324-.981.316-1.851.532-2.606.644-3.643.536-7.204.358-10.683-.537s-6.983-2.178-10.511-3.848a166.21 166.21 0 01-8.789-4.476 96.655 96.655 0 00-8.853-4.28 51.21 51.21 0 00-9.115-2.88c-3.105-.67-6.297-.761-9.576-.279-4.19.618-7.189 1.858-8.997 3.72C.45 5.887-.272 8.074.091 10.586c.187 1.287.622 2.364 1.306 3.234a8.61 8.61 0 002.35 2.094c.883.526 1.818.89 2.809 1.087.99.199 1.849.243 2.577.136.365-.054.24-.16-.372-.32s-1.387-.484-2.326-.972c-.94-.487-1.872-1.147-2.799-1.98-.927-.834-1.492-1.956-1.696-3.364-.107-.735-.075-1.585.096-2.549.17-.963.52-1.876 1.045-2.735.527-.86 1.281-1.644 2.265-2.352.982-.708 2.203-1.17 3.66-1.385 3.218-.474 6.367-.36 9.445.345 3.08.703 6.157 1.72 9.234 3.05a118.07 118.07 0 019.257 4.501 94.966 94.966 0 009.583 4.501 62.28 62.28 0 0010.354 3.402c3.53.824 7.3.942 11.307.351 1.79-.264 3.394-.624 4.814-1.079 1.42.455 3.025.815 4.814 1.079 4.008.59 7.776.474 11.307-.351a62.276 62.276 0 0010.354-3.402 94.718 94.718 0 009.583-4.5 117.942 117.942 0 019.257-4.502c3.077-1.33 6.154-2.347 9.234-3.05 3.079-.704 6.227-.819 9.445-.344 1.458.215 2.678.676 3.66 1.385.983.707 1.738 1.492 2.265 2.351.527.86.875 1.772 1.045 2.736.17.964.203 1.813.096 2.549-.204 1.41-.769 2.53-1.696 3.363-.927.833-1.86 1.494-2.799 1.981-.939.487-1.714.81-2.326.971-.612.16-.737.268-.372.32.728.108 1.587.063 2.577-.135a8.822 8.822 0 002.809-1.087 8.59 8.59 0 002.35-2.094c.683-.87 1.119-1.948 1.306-3.234.363-2.513-.359-4.7-2.167-6.562h-.002z"/></svg><svg viewBox="0 0 17 18" id="location" xmlns="http://www.w3.org/2000/svg"><path fill-rule="evenodd" clip-rule="evenodd" d="M15.65 7.792c0-3.915-3.442-7.142-7.5-7.142S.65 3.877.65 7.792c0 3.991 3.502 6.75 6.727 8.664a1.627 1.627 0 001.545 0c3.23-1.897 6.728-4.688 6.728-8.664zm-4.805 1.13c.146-.34.222-.704.222-1.071 0-.743-.308-1.455-.855-1.98a2.98 2.98 0 00-2.062-.82 2.98 2.98 0 00-2.062.82 2.745 2.745 0 00-.855 1.98c0 .367.076.732.222 1.071.147.34.362.649.633.909.27.26.592.466.946.607a3.023 3.023 0 002.232 0c.354-.141.675-.347.946-.607.271-.26.486-.569.633-.909z"/></svg><svg viewBox="0 0 12 12" id="max" xmlns="http://www.w3.org/2000/svg"><path fill-rule="evenodd" clip-rule="evenodd" d="M6.191 2.961c-1.57-.083-2.795 1.011-3.065 2.723-.224 1.417.173 3.144.512 3.231.144.037.49-.229.742-.467a.144.144 0 01.175-.019c.392.241.837.422 1.327.448 1.612.085 3.04-1.181 3.125-2.8C9.09 4.46 7.803 3.047 6.19 2.962zm-2.629 8.217a.15.15 0 00-.195.023c-.681.73-2.424 1.24-2.504.246 0-.78-.174-1.437-.366-2.16C.262 8.4 0 7.416 0 5.983 0 2.568 2.79 0 6.098 0S12 2.694 12 6.017c0 3.322-2.676 5.95-5.87 5.95-1.134 0-1.684-.16-2.568-.789z"/></svg><svg viewBox="0 0 13 17" id="microphone" xmlns="http://www.w3.org/2000/svg"><path d="M9.3 3.027C9.3 1.521 7.957.3 6.3.3s-3 1.221-3 2.727v4.546c0 1.506 1.343 2.727 3 2.727s3-1.221 3-2.727V3.027zM12.3 7.3c0 .827-.155 1.647-.457 2.411a6.33 6.33 0 01-1.3 2.044 5.99 5.99 0 01-1.947 1.365 5.753 5.753 0 01-2.296.48m0 0a5.753 5.753 0 01-2.296-.48 5.99 5.99 0 01-1.947-1.365 6.33 6.33 0 01-1.3-2.044A6.574 6.574 0 01.3 7.3m6 6.3v2.7"/></svg><svg viewBox="0 0 18 14" id="next" xmlns="http://www.w3.org/2000/svg"><path d="M.65 6.65h16m0 0l-6-6m6 6l-6 6"/></svg><svg viewBox="0 0 19 17" id="peoples" xmlns="http://www.w3.org/2000/svg"><path d="M6.3 3.5a2.4 2.4 0 11-4.8 0 2.4 2.4 0 014.8 0zm0 0a3.2 3.2 0 006.4 0m-6.4 0a3.2 3.2 0 016.4 0m0 0a2.4 2.4 0 104.8 0 2.4 2.4 0 00-4.8 0zm-8 10.8H1.1a.8.8 0 01-.8-.8V9.1c0-.933.72-2.8 3.6-2.8.888 0 2.434.307 3.177 1.375M4.7 14.3v-3.4c0-.908.527-2.503 2.377-3.225M4.7 14.3v1.2a.8.8 0 00.8.8h3.8M7.077 7.675C7.672 7.442 8.404 7.3 9.3 7.3m4.4 7H17.3a.8.8 0 00.8-.8V9.1c0-.933-.72-2.8-3.6-2.8-.888 0-2.434.307-3.177 1.375M13.7 14.3v-3.4c0-.908-.527-2.503-2.377-3.225M13.7 14.3v1.2a.8.8 0 01-.8.8H9.1m2.223-8.625C10.728 7.442 9.996 7.3 9.1 7.3"/></svg><svg viewBox="0 0 17 18" id="phone" xmlns="http://www.w3.org/2000/svg"><path d="M2.243 7.354l2.2-2.347c.219-.237.373-.533.448-.856a1.968 1.968 0 00-.025-.979 25.292 25.292 0 01-.409-1.639C4.361 1.05 3.963.65 3.5.65H2.243C1.318.65.557 1.454.66 2.435c.772 7.46 6.325 13.383 13.318 14.206.92.108 1.673-.703 1.673-1.69V13.61c0-.493-.377-.898-.832-.987-.5-.104-.994-.24-1.478-.408a1.723 1.723 0 00-1.823.44l-2.151 2.296"/></svg><svg viewBox="0 0 18 14" id="prev" xmlns="http://www.w3.org/2000/svg"><path d="M16.65 6.65h-16m0 0l6-6m-6 6l6 6"/></svg><svg viewBox="0 0 17 17" id="restaurant" xmlns="http://www.w3.org/2000/svg"><path d="M.951 1.3l12.965 12.79a1.285 1.285 0 010 1.831 1.321 1.321 0 01-1.855 0l-3.167-3.178a1.103 1.103 0 01-.324-.779v-.192a1.099 1.099 0 00-.335-.79l-.409-.373a1.13 1.13 0 00-1.049-.259 1.73 1.73 0 01-1.638-.438L2.133 6.946C.35 5.186-.307 2.529.95 1.3zM13.443.3l-2.76 2.759a2.286 2.286 0 00-.669 1.616v.531a.572.572 0 01-.167.405l-.404.403m1.143 1.143l.403-.404a.571.571 0 01.405-.167h.53a2.286 2.286 0 001.617-.67L16.3 3.157M14.871 1.73l-2.857 2.857M6.3 12.3l-3.562 3.582a1.429 1.429 0 01-2.02-2.02l3.01-2.99"/></svg><svg viewBox="0 0 17 17" id="scene" xmlns="http://www.w3.org/2000/svg"><path d="M8.3 16.3v-3m0 3c2.029 0 3.881-.189 5.292-.5 1.66-.366 2.708-.903 2.708-1.5v-3m-8 5c-2.029 0-3.881-.189-5.292-.5C1.348 15.434.3 14.897.3 14.3v-3m16 0c0 .597-1.048 1.134-2.708 1.5-1.41.311-3.263.5-5.292.5m8-2c0-.904-2.398-1.668-5.69-1.915M8.3 13.3c-2.029 0-3.881-.189-5.292-.5C1.348 12.434.3 11.897.3 11.3m0 0c0-.904 2.398-1.668 5.69-1.915M11.3 11.8c0 .276-1.343.5-3 .5s-3-.224-3-.5m6 0c0-.276-1.343-.5-3-.5s-3 .224-3 .5m6 0l-.69-2.415M5.3 11.8l.69-2.415m0 0L7.338 2.8c.277-.967 1.647-.967 1.924 0l1.348 6.585M11.3.3c-.167 2 1.4 6 5 6-.282 0-1.515.428-1.89 2.008-.129.537.338.992.89.992h1v-6a3 3 0 00-3-3h-2zM5.274.3c.166 2-1.392 6-4.974 6 .28 0 1.507.428 1.881 2.008.127.537-.339.992-.891.992H.3v-6a3 3 0 013-3h1.974z"/></svg><svg viewBox="0 0 11 9" id="telegram" xmlns="http://www.w3.org/2000/svg"><path d="M10.443.047c.039 0 .102.004.17.02a.493.493 0 01.193.086c.087.071.113.167.127.243.009.056.02.167.02.275l-.005.105c-.152 1.58-.812 5.415-1.147 7.186-.14.744-.412.966-.65.987-.28.026-.53-.065-.782-.212a5.404 5.404 0 01-.383-.252c-.13-.091-.266-.188-.41-.28-.445-.29-.793-.524-1.138-.756a81.824 81.824 0 00-1.122-.744c-.247-.16-.386-.3-.452-.424a.363.363 0 01-.01-.339c.05-.113.148-.228.273-.353.062-.063.13-.127.2-.194s.144-.137.216-.21c.073-.076.756-.694 1.43-1.323.337-.313.67-.63.923-.88.127-.126.233-.236.31-.32.038-.043.07-.08.093-.11a.468.468 0 00.028-.042.142.142 0 00.018-.04.28.28 0 00.002-.096.204.204 0 00-.065-.126h.001a.198.198 0 00-.134-.046.524.524 0 00-.116.016.211.211 0 00-.045.018l-.065.036a9.18 9.18 0 00-.223.137c-.19.12-.462.294-.818.527-.712.464-1.759 1.156-3.139 2.076-.399.272-.755.4-1.071.393a3.712 3.712 0 01-.718-.123 13.45 13.45 0 01-.844-.243C.79 4.936.511 4.86.315 4.767a.623.623 0 01-.213-.15.23.23 0 01-.053-.184c.009-.07.064-.152.186-.242.121-.088.3-.18.538-.273h.001a496.56 496.56 0 015.907-2.512C8.088.83 8.936.49 9.48.295c.544-.195.78-.245.962-.248z"/></svg></svg>