<svg width="62" height="56" viewBox="0 0 62 56" fill="none" xmlns="http://www.w3.org/2000/svg">
<path d="M21 11.6667C21 16.0849 17.4183 19.6667 13 19.6667C8.58172 19.6667 5 16.0849 5 11.6667C5 7.24839 8.58172 3.66667 13 3.66667C17.4183 3.66667 21 7.24839 21 11.6667ZM21 11.6667C21 17.5577 25.7756 22.3333 31.6667 22.3333C37.5577 22.3333 42.3333 17.5577 42.3333 11.6667M21 11.6667C21 5.77563 25.7756 1 31.6667 1C37.5577 1 42.3333 5.77563 42.3333 11.6667M42.3333 11.6667C42.3333 16.0849 45.9151 19.6667 50.3333 19.6667C54.7516 19.6667 58.3333 16.0849 58.3333 11.6667C58.3333 7.24839 54.7516 3.66667 50.3333 3.66667C45.9151 3.66667 42.3333 7.24839 42.3333 11.6667ZM15.6667 47.6667H6.33333M15.6667 47.6667V36.3333C15.6667 33.3068 17.4223 27.9904 23.5902 25.5819M15.6667 47.6667V51.6667C15.6667 53.1394 16.8606 54.3333 18.3333 54.3333H31M6.33333 47.6667H3.66667C2.19391 47.6667 1 46.4728 1 45V30.3333C1 27.2222 3.4 21 13 21C15.9607 21 21.1128 22.0227 23.5902 25.5819M6.33333 47.6667V34.3333M23.5902 25.5819C25.5742 24.8072 28.0146 24.3333 31 24.3333M45.6667 47.6667H55M45.6667 47.6667V36.3333C45.6667 33.3068 43.9111 27.9904 37.7431 25.5819M45.6667 47.6667V51.6667C45.6667 53.1394 44.4728 54.3333 43 54.3333H30.3333M55 47.6667H57.6667C59.1394 47.6667 60.3333 46.4728 60.3333 45V30.3333C60.3333 27.2222 57.9333 21 48.3333 21C45.3727 21 40.2205 22.0227 37.7431 25.5819M55 47.6667V34.3333M37.7431 25.5819C35.7592 24.8072 33.3187 24.3333 30.3333 24.3333" stroke="url(#paint0_linear_83_342)" stroke-width="2" stroke-linecap="round"/>
<defs>
<linearGradient id="paint0_linear_83_342" x1="30.6667" y1="1" x2="30.6667" y2="54.3333" gradientUnits="userSpaceOnUse">
<stop stop-color="#FF9900"/>
<stop offset="1" stop-color="#A96600"/>
</linearGradient>
</defs>
</svg>
