<svg width="61" height="64" viewBox="0 0 61 64" fill="none" xmlns="http://www.w3.org/2000/svg">
<path d="M21.6667 54.3335C20.7778 53.0001 18.8665 49.5335 20.9999 46.3335C23.1332 43.1335 23 42.1111 23 41C23.6667 41.8889 25 44.3335 25 44.3335C25 44.3335 27.6667 40.3335 27 37.6668C26.3927 35.2374 33.5315 41.6608 34.3027 44.3354M21.6667 54.3335H37.6667M21.6667 54.3335H15.6667V59.6667C15.6667 61.1394 16.8606 62.3333 18.3333 62.3333H42.3333C43.8061 62.3333 45 61.1394 45 59.6667V54.3335H37.6667M34.3027 44.3354C34.3781 44.5967 34.3333 45.0001 34.3333 45.0001C34.3333 45.0001 34.1228 45.295 34.3027 44.3354ZM34.3027 44.3354C34.4808 43.3857 34.7789 41.9949 35 41C37 43.0001 40.361 49.6667 37.6667 54.3335M25 33V25C25.2222 23.2222 23.4 19.6667 17 19.6667C10.6 19.6667 9 23.2222 9 25V59.6667C9 61.1394 7.80609 62.3333 6.33333 62.3333H3.66667C2.19391 62.3333 1 61.1394 1 59.6667V21C1 15.6667 8.46667 1 30.3333 1C52.2 1 59.6667 15.6667 59.6667 21V59.6667C59.6667 61.1394 58.4727 62.3333 57 62.3333H54.3333C52.8606 62.3333 51.6667 61.1394 51.6667 59.6667V25C51.6667 23.2222 50.0667 19.6667 43.6667 19.6667C37.2667 19.6667 35.4444 23.2222 35.6667 25V33" stroke="url(#paint0_linear_83_1023)" stroke-width="2" stroke-linecap="round"/>
<defs>
<linearGradient id="paint0_linear_83_1023" x1="30.3333" y1="1" x2="30.3333" y2="62.3333" gradientUnits="userSpaceOnUse">
<stop stop-color="#FF9900"/>
<stop offset="1" stop-color="#A96600"/>
</linearGradient>
</defs>
</svg>
