<svg width="77" height="37" viewBox="0 0 77 37" fill="none" xmlns="http://www.w3.org/2000/svg">
<path d="M70.3516 8.24561L69.4127 8.58961L70.3516 8.24561ZM65.2617 1L66.0314 0.361617C65.7593 0.0335028 65.3091 -0.086033 64.91 0.0638754L65.2617 1ZM55.2713 4.75304L54.9196 3.81691C54.5206 3.96683 54.2604 4.35328 54.2717 4.77945L55.2713 4.75304ZM56.0796 13.6071L55.1407 13.9511L56.0796 13.6071ZM71.3853 33.226L71.737 34.1621V34.1621L71.3853 33.226ZM66.752 33.8983C66.235 34.0925 65.9734 34.6691 66.1676 35.1861C66.3618 35.7031 66.9384 35.9648 67.4554 35.7705L67.1037 34.8344L66.752 33.8983ZM76.0186 32.5536C76.5356 32.3594 76.7972 31.7829 76.603 31.2659C76.4088 30.7488 75.8322 30.4872 75.3152 30.6814L75.6669 31.6175L76.0186 32.5536ZM55.6297 10.4716C55.0774 10.4716 54.6297 10.9193 54.6297 11.4716C54.6297 12.0239 55.0774 12.4716 55.6297 12.4716V11.4716V10.4716ZM70.854 12.4716C71.4063 12.4716 71.854 12.0239 71.854 11.4716C71.854 10.9193 71.4063 10.4716 70.854 10.4716V11.4716V12.4716ZM6.31551 8.24561L7.25448 8.58961L6.31551 8.24561ZM11.4054 1L11.7571 0.0638754C11.3581 -0.086033 10.9078 0.0335028 10.6357 0.361617L11.4054 1ZM21.3958 4.75304L22.3955 4.77945C22.4067 4.35328 22.1466 3.96683 21.7475 3.81691L21.3958 4.75304ZM20.5875 13.6071L21.5265 13.9511L20.5875 13.6071ZM5.28185 33.226L4.93018 34.1621H4.93018L5.28185 33.226ZM9.21178 35.7705C9.72879 35.9648 10.3054 35.7031 10.4996 35.1861C10.6938 34.6691 10.4321 34.0925 9.91512 33.8983L9.56345 34.8344L9.21178 35.7705ZM1.35191 30.6814C0.834906 30.4872 0.258341 30.7488 0.0641197 31.2659C-0.130102 31.7829 0.131568 32.3594 0.648575 32.5536L1.00024 31.6175L1.35191 30.6814ZM21.0375 12.4716C21.5897 12.4716 22.0375 12.0239 22.0375 11.4716C22.0375 10.9193 21.5897 10.4716 21.0375 10.4716V11.4716V12.4716ZM5.81311 10.4716C5.26083 10.4716 4.81311 10.9193 4.81311 11.4716C4.81311 12.0239 5.26083 12.4716 5.81311 12.4716V11.4716V10.4716ZM57.6761 31.903C57.6761 32.4553 58.1238 32.903 58.6761 32.903C59.2284 32.903 59.6761 32.4553 59.6761 31.903H58.6761H57.6761ZM32.421 16.9046C32.949 16.7427 33.2458 16.1834 33.0838 15.6554C32.9219 15.1274 32.3625 14.8306 31.8345 14.9926L32.1278 15.9486L32.421 16.9046ZM35.3136 8.78329H36.3136V7.78329H35.3136V8.78329ZM37.4994 9.91671C37.4994 10.469 37.9471 10.9167 38.4994 10.9167C39.0517 10.9167 39.4994 10.469 39.4994 9.91671H38.4994H37.4994ZM38.4994 8.78326V7.78326H37.4994V8.78326H38.4994ZM66.0906 18.7738L66.4423 19.71C70.9993 17.9981 72.9019 12.2996 71.2906 7.90161L70.3516 8.24561L69.4127 8.58961C70.7262 12.175 69.0629 16.589 65.739 17.8377L66.0906 18.7738ZM70.3516 8.24561L71.2906 7.90161C70.866 6.74254 69.7784 5.15261 68.747 3.77311C67.6874 2.35577 66.5832 1.02693 66.0314 0.361617L65.2617 1L64.492 1.63838C65.0454 2.3056 66.1195 3.59874 67.1452 4.97068C68.1992 6.38045 69.104 7.74706 69.4127 8.58961L70.3516 8.24561ZM65.2617 1L64.91 0.0638754L54.9196 3.81691L55.2713 4.75304L55.623 5.68916L65.6134 1.93612L65.2617 1ZM55.2713 4.75304L54.2717 4.77945C54.2931 5.58929 54.3108 7.3299 54.4161 9.10497C54.5189 10.8362 54.712 12.781 55.1407 13.9511L56.0796 13.6071L57.0186 13.2631C56.7071 12.4127 56.518 10.7616 56.4126 8.98646C56.3098 7.25514 56.2935 5.57893 56.271 4.72662L55.2713 4.75304ZM56.0796 13.6071L55.1407 13.9511C56.7537 18.3539 61.8768 21.4251 66.4423 19.71L66.0906 18.7738L65.739 17.8377C62.4234 19.0833 58.3314 16.8465 57.0186 13.2631L56.0796 13.6071ZM66.0906 18.7738L65.1517 19.1178L70.4463 33.57L71.3853 33.226L72.3243 32.882L67.0296 18.4298L66.0906 18.7738ZM71.3853 33.226L71.0336 32.2898L66.752 33.8983L67.1037 34.8344L67.4554 35.7705L71.737 34.1621L71.3853 33.226ZM71.3853 33.226L71.737 34.1621L76.0186 32.5536L75.6669 31.6175L75.3152 30.6814L71.0336 32.2898L71.3853 33.226ZM55.6297 11.4716V12.4716L70.854 12.4716V11.4716V10.4716L55.6297 10.4716V11.4716ZM10.5765 18.7738L10.9282 17.8377C7.60421 16.589 5.94095 12.175 7.25448 8.58961L6.31551 8.24561L5.37654 7.90161C3.76529 12.2996 5.6678 17.9981 10.2248 19.71L10.5765 18.7738ZM6.31551 8.24561L7.25448 8.58961C7.56315 7.74706 8.46795 6.38045 9.52194 4.97068C10.5476 3.59874 11.6218 2.3056 12.1752 1.63838L11.4054 1L10.6357 0.361617C10.0839 1.02693 8.97976 2.35577 7.92012 3.77311C6.88876 5.15261 5.80117 6.74254 5.37654 7.90161L6.31551 8.24561ZM11.4054 1L11.0538 1.93612L21.0442 5.68916L21.3958 4.75304L21.7475 3.81691L11.7571 0.0638754L11.4054 1ZM21.3958 4.75304L20.3962 4.72662C20.3737 5.57893 20.3573 7.25514 20.2545 8.98646C20.1492 10.7616 19.9601 12.4127 19.6485 13.2631L20.5875 13.6071L21.5265 13.9511C21.9551 12.781 22.1483 10.8362 22.251 9.10497C22.3564 7.3299 22.3741 5.58929 22.3955 4.77945L21.3958 4.75304ZM20.5875 13.6071L19.6485 13.2631C18.3357 16.8465 14.2437 19.0833 10.9282 17.8377L10.5765 18.7738L10.2248 19.71C14.7903 21.4251 19.9135 18.3539 21.5265 13.9511L20.5875 13.6071ZM10.5765 18.7738L9.63754 18.4298L4.34288 32.882L5.28185 33.226L6.22082 33.57L11.5155 19.1178L10.5765 18.7738ZM5.28185 33.226L4.93018 34.1621L9.21178 35.7705L9.56345 34.8344L9.91512 33.8983L5.63351 32.2898L5.28185 33.226ZM5.28185 33.226L5.63351 32.2898L1.35191 30.6814L1.00024 31.6175L0.648575 32.5536L4.93018 34.1621L5.28185 33.226ZM21.0375 11.4716V10.4716L5.81311 10.4716V11.4716V12.4716L21.0375 12.4716V11.4716ZM14.0749 35.6667V34.6667C13.466 34.6667 12.951 34.1634 12.951 33.516H11.951H10.951C10.951 35.2442 12.3379 36.6667 14.0749 36.6667V35.6667ZM62.9238 33.516H61.9238C61.9238 34.1634 61.4089 34.6667 60.8 34.6667V35.6667V36.6667C62.537 36.6667 63.9238 35.2442 63.9238 33.516H62.9238ZM60.8 31.3653V32.3653C61.4089 32.3653 61.9238 32.8686 61.9238 33.516H62.9238H63.9238C63.9238 31.7878 62.537 30.3653 60.8 30.3653V31.3653ZM14.0749 31.3653V30.3653C12.3379 30.3653 10.951 31.7878 10.951 33.516H11.951H12.951C12.951 32.8686 13.466 32.3653 14.0749 32.3653V31.3653ZM14.0749 31.3653V32.3653H15.1432V31.3653V30.3653H14.0749V31.3653ZM15.1432 31.3653V32.3653H20.4549V31.3653V30.3653H15.1432V31.3653ZM58.6698 31.3653V32.3653H60.8V31.3653V30.3653H58.6698V31.3653ZM36.9065 9.85863V10.8586C48.1963 10.8586 57.4006 19.9928 57.67 31.389L58.6698 31.3653L59.6695 31.3417C59.375 18.8852 49.3078 8.85863 36.9065 8.85863V9.85863ZM58.6698 31.3653L57.67 31.389C57.6741 31.5598 57.6761 31.7311 57.6761 31.903H58.6761H59.6761C59.6761 31.7154 59.6739 31.5283 59.6695 31.3417L58.6698 31.3653ZM20.4549 31.3653L21.4544 31.3966C21.6689 24.5417 26.2278 18.8042 32.421 16.9046L32.1278 15.9486L31.8345 14.9926C24.8308 17.1408 19.6969 23.6161 19.4554 31.3341L20.4549 31.3653ZM15.1432 31.3653L16.1429 31.389C16.4001 20.509 24.8027 11.6891 35.3866 10.9141L35.3136 9.91674L35.2405 8.91941C23.6143 9.77079 14.4246 19.4477 14.1435 31.3417L15.1432 31.3653ZM35.3136 9.91674L35.3866 10.9141C35.8883 10.8773 36.3952 10.8586 36.9065 10.8586V9.85863V8.85863C36.3464 8.85863 35.7908 8.87912 35.2405 8.91941L35.3136 9.91674ZM35.3136 9.91674H36.3136V8.78329H35.3136H34.3136V9.91674H35.3136ZM35.3136 8.78329V7.78329C34.8536 7.78329 34.1828 7.70995 33.6649 7.52117C33.4066 7.42701 33.2529 7.3278 33.1767 7.25302C33.1213 7.19867 33.1278 7.18358 33.1278 7.17029H32.1278H31.1278C31.1278 8.49437 32.2383 9.12986 32.9799 9.40021C33.7895 9.69533 34.7116 9.78329 35.3136 9.78329V8.78329ZM32.1278 7.17029H33.1278C33.1278 7.32579 33.0143 7.33086 33.198 7.21066C33.3824 7.08997 33.703 6.96168 34.1559 6.8516C35.047 6.63505 36.1556 6.55729 36.9065 6.55729V5.55729V4.55729C36.0644 4.55729 34.7837 4.64083 33.6836 4.90817C33.141 5.04005 32.5656 5.23436 32.1029 5.53708C31.6395 5.8403 31.1278 6.36959 31.1278 7.17029H32.1278ZM38.4994 9.91671H39.4994V8.78326H38.4994H37.4994V9.91671H38.4994ZM38.4994 8.78326V9.78326C39.1013 9.78326 40.0234 9.6953 40.833 9.40018C41.5746 9.12983 42.6852 8.49434 42.6852 7.17026H41.6852H40.6852C40.6852 7.18355 40.6916 7.19864 40.6363 7.25299C40.5601 7.32777 40.4063 7.42698 40.148 7.52114C39.6301 7.70992 38.9594 7.78326 38.4994 7.78326V8.78326ZM41.6852 7.17026H42.6852C42.6852 6.36956 42.1734 5.84026 41.71 5.53705C41.2474 5.23433 40.6719 5.04003 40.1293 4.90816C39.0292 4.64082 37.7485 4.55729 36.9065 4.55729V5.55729V6.55729C37.6573 6.55729 38.7659 6.63505 39.657 6.85159C40.1099 6.96166 40.4305 7.08995 40.615 7.21064C40.7987 7.33083 40.6852 7.32576 40.6852 7.17026H41.6852ZM20.4549 31.3653V32.3653H58.6698V31.3653V30.3653H20.4549V31.3653ZM60.8 35.6667V34.6667H14.0749V35.6667V36.6667H60.8V35.6667Z" fill="url(#paint0_linear_83_348)"/>
<defs>
<linearGradient id="paint0_linear_83_348" x1="38.3336" y1="1" x2="38.3336" y2="35.6667" gradientUnits="userSpaceOnUse">
<stop stop-color="#FF9900"/>
<stop offset="1" stop-color="#A96600"/>
</linearGradient>
</defs>
</svg>
