<svg width="53" height="49" viewBox="0 0 53 49" fill="none" xmlns="http://www.w3.org/2000/svg">
<path d="M18.2503 10.3359V5.66667C18.2503 2.33594 22.3333 0.999972 26.3333 1C30.3333 0.999972 34.4163 2.33594 34.4163 5.66667V10.3359M18.2503 10.3359H22.3333M18.2503 10.3359V14.3359M18.2503 14.3359H22.3333M18.2503 14.3359V19.6693M18.2503 19.6693V29.0001C18.278 30.7779 19.9333 34.3334 26.3333 34.3334C32.7333 34.3334 34.3887 30.7779 34.4163 29.0001V19.6693M18.2503 19.6693H22.3333M14.3333 19.6693V31.6693C14.3333 34.3359 16.4667 39.6693 25 39.6693V45.0026H18.8026C18.449 45.0026 18.1098 45.1431 17.8598 45.3931L16.5771 46.6758C16.2411 47.0118 16.4791 47.5863 16.9542 47.5863H35.7124C36.1876 47.5863 36.4255 47.0118 36.0895 46.6758L34.8069 45.3931C34.5568 45.1431 34.2177 45.0026 33.8641 45.0026H27.6667V39.6693C36.2 39.6693 38.3333 34.3359 38.3333 31.6693V19.6693M34.4163 10.3359H30.3333M34.4163 10.3359V14.3359M34.4163 14.3359H30.3333M34.4163 14.3359V19.6693M34.4163 19.6693H30.3333M11 29.6693L5.24364 33.8906C3.48223 35.1823 1 33.9245 1 31.7402V17.6214C1 15.5686 3.22222 14.2856 5 15.312L11 18.7761V29.6693ZM41.6667 29.6693L47.423 33.8906C49.1844 35.1823 51.6667 33.9245 51.6667 31.7402V17.6214C51.6667 15.5686 49.4444 14.2856 47.6667 15.312L41.6667 18.7761V29.6693Z" stroke="url(#paint0_linear_83_354)" stroke-width="2" stroke-linecap="round"/>
<defs>
<linearGradient id="paint0_linear_83_354" x1="26.3333" y1="1" x2="26.3333" y2="47.5863" gradientUnits="userSpaceOnUse">
<stop stop-color="#FF9900"/>
<stop offset="1" stop-color="#A96600"/>
</linearGradient>
</defs>
</svg>
