<svg width="53" height="45" viewBox="0 0 53 45" fill="none" xmlns="http://www.w3.org/2000/svg">
<path d="M1 13H51.2857M1 13V35.8571M1 13V8.42857C1 6.53502 2.53502 5 4.42857 5H10.1429M51.2857 13V35.8571M51.2857 13V8.42857C51.2857 6.53502 49.7507 5 47.8571 5H42.1429M1 35.8571C1 37.7507 2.53502 39.2857 4.42857 39.2857H47.8571C49.7507 39.2857 51.2857 37.7507 51.2857 35.8571M1 35.8571V40.4286C1 42.3221 2.53502 43.8571 4.42857 43.8571H47.8571C49.7507 43.8571 51.2857 42.3221 51.2857 40.4286V35.8571M36.4286 5V7.28572C36.4286 8.23249 37.1961 9 38.1429 9H40.4286C41.3754 9 42.1429 8.23249 42.1429 7.28572V5M36.4286 5V2.71429C36.4286 1.76751 37.1961 1 38.1429 1H40.4286C41.3754 1 42.1429 1.76751 42.1429 2.71429V5M36.4286 5H15.8571M15.8571 5V2.71429C15.8571 1.76751 15.0896 1 14.1429 1H11.8571C10.9104 1 10.1429 1.76751 10.1429 2.71429V7.28572C10.1429 8.23249 10.9104 9 11.8571 9H14.1429C15.0896 9 15.8571 8.23249 15.8571 7.28572V5ZM5 29H7.28572C8.23249 29 9 28.2325 9 27.2857V25C9 24.0532 8.23249 23.2857 7.28572 23.2857H5C4.05323 23.2857 3.28571 24.0532 3.28571 25V27.2857C3.28571 28.2325 4.05323 29 5 29ZM5 37H7.28572C8.23249 37 9 36.2325 9 35.2857V33C9 32.0532 8.23249 31.2857 7.28572 31.2857H5C4.05323 31.2857 3.28571 32.0532 3.28571 33V35.2857C3.28571 36.2325 4.05323 37 5 37ZM13 29H15.2857C16.2325 29 17 28.2325 17 27.2857V25C17 24.0532 16.2325 23.2857 15.2857 23.2857H13C12.0532 23.2857 11.2857 24.0532 11.2857 25V27.2857C11.2857 28.2325 12.0532 29 13 29ZM13 37H15.2857C16.2325 37 17 36.2325 17 35.2857V33C17 32.0532 16.2325 31.2857 15.2857 31.2857H13C12.0532 31.2857 11.2857 32.0532 11.2857 33V35.2857C11.2857 36.2325 12.0532 37 13 37ZM21 29H23.2857C24.2325 29 25 28.2325 25 27.2857V25C25 24.0532 24.2325 23.2857 23.2857 23.2857H21C20.0532 23.2857 19.2857 24.0532 19.2857 25V27.2857C19.2857 28.2325 20.0532 29 21 29ZM21 37H23.2857C24.2325 37 25 36.2325 25 35.2857V33C25 32.0532 24.2325 31.2857 23.2857 31.2857H21C20.0532 31.2857 19.2857 32.0532 19.2857 33V35.2857C19.2857 36.2325 20.0532 37 21 37ZM29 21H31.2857C32.2325 21 33 20.2325 33 19.2857V17C33 16.0532 32.2325 15.2857 31.2857 15.2857H29C28.0532 15.2857 27.2857 16.0532 27.2857 17V19.2857C27.2857 20.2325 28.0532 21 29 21ZM29 29H31.2857C32.2325 29 33 28.2325 33 27.2857V25C33 24.0532 32.2325 23.2857 31.2857 23.2857H29C28.0532 23.2857 27.2857 24.0532 27.2857 25V27.2857C27.2857 28.2325 28.0532 29 29 29ZM37 21H39.2857C40.2325 21 41 20.2325 41 19.2857V17C41 16.0532 40.2325 15.2857 39.2857 15.2857H37C36.0532 15.2857 35.2857 16.0532 35.2857 17V19.2857C35.2857 20.2325 36.0532 21 37 21ZM37 29H39.2857C40.2325 29 41 28.2325 41 27.2857V25C41 24.0532 40.2325 23.2857 39.2857 23.2857H37C36.0532 23.2857 35.2857 24.0532 35.2857 25V27.2857C35.2857 28.2325 36.0532 29 37 29ZM45 21H47.2857C48.2325 21 49 20.2325 49 19.2857V17C49 16.0532 48.2325 15.2857 47.2857 15.2857H45C44.0532 15.2857 43.2857 16.0532 43.2857 17V19.2857C43.2857 20.2325 44.0532 21 45 21ZM45 29H47.2857C48.2325 29 49 28.2325 49 27.2857V25C49 24.0532 48.2325 23.2857 47.2857 23.2857H45C44.0532 23.2857 43.2857 24.0532 43.2857 25V27.2857C43.2857 28.2325 44.0532 29 45 29Z" stroke="url(#paint0_linear_83_360)" stroke-width="2"/>
<defs>
<linearGradient id="paint0_linear_83_360" x1="26.1429" y1="1" x2="26.1429" y2="43.8571" gradientUnits="userSpaceOnUse">
<stop stop-color="#FF9900"/>
<stop offset="1" stop-color="#A96600"/>
</linearGradient>
</defs>
</svg>
